<?xml version="1.0" encoding="UTF-8"?>
<svg width="100" height="100" version="1.1" viewBox="0 0 26.5 26.5" xmlns="http://www.w3.org/2000/svg" fill="black">
 <path d="m8.49 0.225c-0.607 0.163-1.05 0.428-1.54 0.918-0.719 0.714-1.02 1.45-1.02 2.47 0 0.724 0.168 1.31 0.535 1.89 0.0918 0.138 1.58 1.92 3.3 3.95 1.73 2.03 3.15 3.71 3.15 3.72 0 0.0153-1.42 1.69-3.15 3.72-1.72 2.03-3.21 3.81-3.3 3.95-0.372 0.586-0.535 1.17-0.535 1.89 0 1.02 0.301 1.76 1.01 2.47 0.724 0.719 1.45 1.02 2.45 1.02 0.867 0 1.58-0.24 2.21-0.739 0.178-0.143 1.84-2.06 4.41-5.08 2.26-2.67 4.21-4.97 4.32-5.11 0.474-0.627 0.693-1.3 0.693-2.12 0-0.816-0.224-1.5-0.693-2.12-0.489-0.642-8.46-9.97-8.65-10.1-0.352-0.285-0.647-0.454-1.09-0.617-0.362-0.138-0.484-0.158-1.07-0.173-0.54-0.0102-0.734 0.0051-1.03 0.0867z"/>
</svg>
