<?xml version="1.0" encoding="UTF-8"?>
<svg width="80pt" height="80pt" version="1.0" viewBox="0 0 80 80" xmlns="http://www.w3.org/2000/svg">
 <g transform="matrix(.013773 0 0 -.013773 5.964 75.18)" fill="black">
  <path d="m1436 5104c-134-33-276-124-367-238-51-62-105-164-115-215l-6-31h377l45 47c25 25 70 58 100 72l55 26h2540l56-26c72-34 134-96 168-168l26-56v-3180l-26-55c-32-69-99-136-164-166l-50-24-5 1058-5 1057-22 58c-54 142-63 152-516 604-364 364-441 436-492 461-131 65-77 62-1084 62-1025 0-978 3-1131-73-67-32-102-59-165-122-89-89-133-157-173-267l-27-73v-3320l27-73c40-110 84-178 173-267 93-93 183-145 301-175 75-19 113-20 1303-20 1368 0 1274-5 1431 72 120 58 240 178 298 298 49 100 68 168 77 279l8 80 56 12c233 47 433 228 512 464l24 70v3310l-27 73c-39 108-84 177-168 262-85 84-154 129-262 168l-73 27-1320 2c-1121 1-1329-1-1379-13zm1364-1279c0-117 5-238 11-267 35-167 160-309 325-370 53-19 86-22 314-27l255-6v-2560l-25-50c-31-64-101-134-165-165l-50-25h-2410l-56 26c-72 34-134 96-168 168l-26 56-3 1570c-3 1724-6 1620 58 1717 38 57 86 94 159 125l56 23h1725z"/>
  <path d="m2251 3088-694-49-14 21c-35 50-140 67-199 31-40-24-58-65-85-187-11-54-36-148-55-207-40-128-42-158-11-217 54-108 221-131 304-43 37 39 58 101 72 216 5 43 11 80 13 82 1 1 54 6 116 10 111 7 114 7 103-12-5-11-20-78-31-149-12-71-39-205-61-298-54-235-51-295 20-345 55-40 111-44 363-27 128 9 253 16 276 16h44l-7-32c-4-18-11-35-16-38-4-3-257-18-561-33s-573-31-597-34c-31-4-55-16-80-38-34-31-36-37-39-107-3-64-1-78 20-108 49-73 35-72 563-45 259 13 509 26 557 29l87 6-28-79c-34-98-54-129-87-137-14-4-77 3-139 15-194 36-249 26-275-55-28-84 15-149 142-211 171-85 336-121 435-94 143 39 225 165 302 464 16 59 30 109 32 111s117 9 254 16c278 13 305 19 339 79 28 49 27 146-2 193-37 60-73 68-253 58-85-5-181-9-214-10h-61l1 103c0 94-2 106-27 149-59 99-121 113-406 93-114-8-223-15-243-15h-37l10 40c6 22 16 40 22 40s139 9 295 20c340 25 356 30 381 131 22 86-26 178-99 194-25 5-398-17-492-30l-37-5-4 65c-3 43-10 70-22 84-17 19-17 20 26 25 87 11 681 47 686 41 3-3-8-35-26-71-54-109-36-185 52-219 90-35 149 1 272 164 142 190 175 318 101 400-59 64-72 64-986-1z"/>
 </g>
</svg>
