<svg width="66" height="68" viewBox="0 0 66 68" fill="none" xmlns="http://www.w3.org/2000/svg">
<g filter="url(#filter0_d_224_566)">
<path fill-rule="evenodd" clip-rule="evenodd" d="M24.6816 12.8479C25.3372 11.131 26.5291 9.97054 28.2335 9.39033C28.9963 9.14167 29.1989 9.12982 32.6197 9.11798C35.8854 9.11798 36.2907 9.14167 36.9701 9.3548C37.9474 9.65083 38.4957 9.99422 39.2823 10.7639C40.4981 11.9598 41.0106 13.3807 41.0106 15.5832C41.0106 16.9923 41.2013 17.4067 42.0833 17.8567C42.7865 18.2119 43.1679 18.1408 44.4671 17.4067C45.7066 16.7081 46.4337 16.4594 47.4468 16.3765C49.0559 16.2463 50.8199 16.8857 51.9522 18.0106C52.572 18.6263 54.9081 22.4391 55.6828 24.085C56.4098 25.6362 56.386 27.365 55.6113 28.9872C55.0868 30.1003 54.2644 30.9055 52.7984 31.7698C51.8211 32.3382 51.6065 32.5158 51.392 32.9539C51.0821 33.5934 51.0821 33.9012 51.392 34.5406C51.6065 34.9788 51.8211 35.1564 52.7984 35.7247C54.2644 36.5891 55.0868 37.3943 55.6113 38.5074C56.3741 40.1178 56.3979 41.8939 55.6828 43.4096C54.8961 45.0673 52.572 48.8801 51.9522 49.484C50.8199 50.6089 49.0559 51.2483 47.4468 51.1181C46.4337 51.0352 45.7066 50.7865 44.4671 50.0879C43.1679 49.3537 42.7865 49.2827 42.0833 49.6379C41.2013 50.0879 41.0106 50.5023 41.0106 51.9114C41.0106 54.1138 40.4981 55.5348 39.2823 56.7307C38.4957 57.5004 37.9474 57.8438 36.9701 58.1398C36.2907 58.3529 35.8735 58.3766 32.6673 58.3766C29.4492 58.3766 29.044 58.3529 28.3408 58.1398C27.3992 57.8438 26.2788 57.1215 25.7305 56.4465C24.6936 55.1677 24.4433 54.398 24.336 52.2785C24.2645 50.7865 24.2287 50.5734 23.9784 50.2181C23.6209 49.7208 22.7627 49.3301 22.2502 49.4248C22.0476 49.4722 21.4278 49.7563 20.8676 50.0761C19.5923 50.8102 18.889 51.0352 17.7687 51.1181C15.7067 51.2602 13.752 50.301 12.6078 48.5722C11.7138 47.2224 9.63995 43.5517 9.38965 42.8649C9.044 41.9294 9.05592 40.1178 9.41349 39.1468C9.93792 37.6903 10.7603 36.7668 12.2979 35.8787C13.8831 34.9551 14.3479 34.292 14.0857 33.2973C13.9308 32.7408 13.4421 32.279 12.2979 31.6159C10.1286 30.3726 9.16319 28.8096 9.13936 26.5243C9.12744 24.9849 9.30622 24.5113 11.0345 21.5274C12.7627 18.5671 13.2037 17.9632 14.1096 17.3712C15.2299 16.637 15.9689 16.4239 17.4111 16.412C18.8652 16.412 19.342 16.5541 20.8676 17.4067C21.4278 17.7264 22.0476 18.0106 22.2621 18.0579C22.7865 18.1645 23.6089 17.7856 23.9784 17.2764C24.2287 16.9212 24.2645 16.7081 24.336 15.2161C24.3956 13.9254 24.479 13.4044 24.6816 12.8479ZM26.1595 28.5727C27.3752 27.0334 29.2346 25.9559 31.3323 25.577C32.0832 25.4349 34.0021 25.5296 34.8126 25.7546C35.1702 25.8493 35.9211 26.1453 36.4813 26.4177C37.8996 27.1163 39.3299 28.5372 40.0331 29.9581C40.7244 31.3554 40.939 32.2553 40.939 33.7473C40.939 36.1036 40.1881 37.9034 38.5194 39.5493C37.3871 40.6624 36.4455 41.2308 34.9318 41.6926C33.7876 42.0478 31.7137 42.0715 30.5218 41.7518C24.7054 40.1651 22.4289 33.3091 26.1595 28.5727Z" fill="black"/>
</g>
<defs>
<filter id="filter0_d_224_566" x="0.171396" y="0.151682" width="65.0057" height="67.1912" filterUnits="userSpaceOnUse" color-interpolation-filters="sRGB">
<feFlood flood-opacity="0" result="BackgroundImageFix"/>
<feColorMatrix in="SourceAlpha" type="matrix" values="0 0 0 0 0 0 0 0 0 0 0 0 0 0 0 0 0 0 127 0" result="hardAlpha"/>
<feOffset/>
<feGaussianBlur stdDeviation="4.48315"/>
<feComposite in2="hardAlpha" operator="out"/>
<feColorMatrix type="matrix" values="0 0 0 0 0 0 0 0 0 0 0 0 0 0 0 0 0 0 0.4 0"/>
<feBlend mode="normal" in2="BackgroundImageFix" result="effect1_dropShadow_224_566"/>
<feBlend mode="normal" in="SourceGraphic" in2="effect1_dropShadow_224_566" result="shape"/>
</filter>
</defs>
</svg>
