<?xml version="1.0" encoding="UTF-8"?>
<svg width="80pt" height="80pt" version="1.0" viewBox="0 0 80 80" xmlns="http://www.w3.org/2000/svg">
 <g transform="matrix(.014673 0 0 -.014673 1.895 77.589)" fill="black">
  <path d="m190 3608c-80-41-116-124-86-201 17-44 276-339 380-432l56-50-139-135c-120-116-141-141-151-179-25-94 39-192 133-206 70-11 116 16 252 151 66 66 127 125 137 132 14 11 28 4 102-53 147-111 449-305 477-305 4 0-32-84-80-187-49-104-91-201-95-216-26-106 95-216 204-187 69 19 94 52 186 250 47 102 88 187 90 189s60-15 129-38c156-52 348-97 484-113 93-11 104-15 112-36 5-13 9-89 9-170 0-169 9-213 54-258 85-85 226-55 270 57 15 36 16 66 10 213l-7 172 114 12c175 19 426 75 565 128l65 24 84-173c93-195 123-231 198-242 95-14 177 52 185 149 4 48-2 64-77 223-45 94-81 173-81 176 0 2 42 28 93 57 150 86 294 185 445 307l33 26 137-136c76-75 150-140 165-146 135-52 265 77 213 212-11 30-52 79-141 167l-125 125 84 85c123 126 310 343 329 383 36 75 14 159-55 210-38 29-123 34-165 10-17-10-84-79-149-153-152-175-272-298-415-423-151-132-206-175-364-280-694-461-1450-531-2183-204-423 190-847 519-1220 949-122 140-171 162-262 116z"/>
 </g>
</svg>
