<svg width="34" height="44" viewBox="0 0 34 44" fill="none" stroke="black" xmlns="http://www.w3.org/2000/svg">
<path d="M1.41602 35.2023V18.9555C1.41602 17.1752 2.85919 15.7321 4.63944 15.7321C4.93615 15.7321 5.17615 15.495 5.1782 15.1983C5.20803 10.8858 5.80403 1.59715 17.2367 1.59717C28.7018 1.59718 29.2687 10.9384 29.2955 15.2348C29.2972 15.5111 29.5207 15.7321 29.7969 15.7321C31.4544 15.7321 32.7981 17.0757 32.7981 18.7332V35.2023C32.7981 38.9162 29.7873 41.927 26.0733 41.927H8.14074C4.42678 41.927 1.41602 38.9162 1.41602 35.2023Z" stroke="var(--iconColor)" stroke-width="2.24157"/>
<path d="M17.2366 22.8643C15.3745 22.8643 13.8649 24.3738 13.8649 26.2359C13.8649 27.4839 14.543 28.5735 15.5507 29.1564L14.7939 32.2854C14.4528 33.696 15.5215 35.054 16.9727 35.054H17.4311C18.8631 35.054 19.9279 33.7296 19.6204 32.331L18.9224 29.1564C19.9301 28.5735 20.6082 27.4839 20.6082 26.2359C20.6082 24.3738 19.0987 22.8643 17.2366 22.8643Z" stroke="var(--iconColor)" stroke-width="2.24157"/>
<path d="M23.1185 15.7321H11.2388C10.667 15.7321 10.1918 15.3045 10.1905 14.7328C10.1848 12.2996 10.8177 6.26562 17.2367 6.26562C23.6681 6.26562 24.2081 12.3231 24.1667 14.7469C24.157 15.3128 23.6845 15.7321 23.1185 15.7321Z" stroke="var(--iconColor)" stroke-width="2.24157"/>
</svg>
