<svg width="182" height="178" viewBox="0 0 182 178" fill="none" xmlns="http://www.w3.org/2000/svg">
<path d="M91.5 129V105.38M91.5 129L106.594 122.473M91.5 129L76.4062 122.473M57 107.082V71.7705L61.3125 73.6352M126 107.082V71.7705L121.688 73.6352M78.5625 58.1639L91.5 53L104.438 58.1639" stroke="black" stroke-width="8" stroke-linecap="round" stroke-linejoin="round"/>
<path d="M91.7002 80L86.5682 74.5259C85.6701 73.5679 86.3494 72 87.6625 72L95.7378 72C97.051 72 97.7303 73.5679 96.8322 74.5259L91.7002 80Z" fill="black"/>
<path d="M121 59.9996L62.5111 118.489" stroke="black" stroke-width="8" stroke-linecap="round"/>
<path d="M62.5107 59.9996L121 118.489" stroke="black" stroke-width="8" stroke-linecap="round"/>
<path d="M172.32 63.3251V68.3251C173.669 68.3251 174.961 67.7797 175.902 66.8129C176.844 65.8461 177.354 64.5399 177.318 63.1911L172.32 63.3251ZM139.689 19.5924L136.911 23.7498L136.911 23.7498L139.689 19.5924ZM26.487 34.4957L30.2462 37.7925L30.2462 37.7925L26.487 34.4957ZM0 91.5852C-8.99786e-07 94.3466 2.23857 96.5852 5 96.5852C7.76142 96.5852 10 94.3466 10 91.5852L0 91.5852ZM176.71 23.7211C176.71 20.9597 174.471 18.7211 171.71 18.7211C168.948 18.7211 166.71 20.9597 166.71 23.7211H176.71ZM140.463 58.3251C137.701 58.3251 135.463 60.5636 135.463 63.3251C135.463 66.0865 137.701 68.3251 140.463 68.3251V58.3251ZM177.149 62.031C174.293 51.3699 170.246 42.7357 164.49 35.1929C158.754 27.6764 151.484 21.4599 142.467 15.4351L136.911 23.7498C145.36 29.3954 151.687 34.9 156.541 41.2596C161.374 47.5929 164.91 54.9897 167.49 64.6192L177.149 62.031ZM142.467 15.4351C123.992 3.09071 101.66 -2.11646 79.6308 0.78373L80.9361 10.6982C100.56 8.11465 120.454 12.7533 136.911 23.7498L142.467 15.4351ZM79.6308 0.78373C57.6016 3.68392 37.378 14.4937 22.7278 31.199L30.2462 37.7925C43.2967 22.9112 61.3122 13.2817 80.9361 10.6982L79.6308 0.78373ZM22.7278 31.199C8.07758 47.9044 7.23996e-06 69.3659 0 91.5852L10 91.5852C10 71.792 17.1956 52.6738 30.2462 37.7925L22.7278 31.199ZM172.32 63.3251C177.318 63.1911 177.318 63.1911 177.318 63.1909C177.318 63.1908 177.318 63.1906 177.318 63.1903C177.318 63.1896 177.318 63.1887 177.318 63.1873C177.318 63.1847 177.318 63.1807 177.318 63.1753C177.317 63.1646 177.317 63.1484 177.316 63.1269C177.315 63.0838 177.313 63.0194 177.311 62.9345C177.307 62.7648 177.3 62.5132 177.292 62.1867C177.275 61.5337 177.252 60.5812 177.223 59.3854C177.166 56.9935 177.09 53.6288 177.014 49.7392C176.861 41.953 176.71 32.0905 176.71 23.7211H166.71C166.71 32.1888 166.863 42.1283 167.016 49.9348C167.092 53.8415 167.168 57.2209 167.226 59.6239C167.254 60.8256 167.278 61.7833 167.295 62.4412C167.304 62.7701 167.31 63.024 167.315 63.196C167.317 63.282 167.319 63.3475 167.32 63.3916C167.32 63.4137 167.321 63.4304 167.321 63.4417C167.321 63.4473 167.321 63.4516 167.321 63.4545C167.321 63.4559 167.321 63.457 167.321 63.4578C167.322 63.4582 167.322 63.4585 167.322 63.4587C167.322 63.4589 167.322 63.459 172.32 63.3251ZM172.32 58.3251H140.463V68.3251H172.32V58.3251Z" fill="black"/>
<path d="M9.68027 113.995L9.68027 108.995C8.33096 108.995 7.03893 109.54 6.09769 110.507C5.15645 111.474 4.64592 112.78 4.68207 114.129L9.68027 113.995ZM42.3109 157.728L45.0887 153.57L45.0887 153.57L42.3109 157.728ZM155.513 142.824L151.754 139.527L151.754 139.527L155.513 142.824ZM182 85.7347C182 82.9733 179.761 80.7347 177 80.7347C174.239 80.7347 172 82.9733 172 85.7347L182 85.7347ZM5.29045 153.599C5.29045 156.36 7.52903 158.599 10.2905 158.599C13.0519 158.599 15.2905 156.36 15.2905 153.599L5.29045 153.599ZM41.5374 118.995C44.2988 118.995 46.5374 116.756 46.5374 113.995C46.5374 111.233 44.2988 108.995 41.5374 108.995L41.5374 118.995ZM4.85064 115.289C7.70726 125.95 11.7535 134.584 17.5099 142.127C23.2461 149.644 30.5162 155.86 39.533 161.885L45.0887 153.57C36.6395 147.925 30.3128 142.42 25.4594 136.06C20.6261 129.727 17.0901 122.33 14.5099 112.701L4.85064 115.289ZM39.533 161.885C58.0077 174.229 80.34 179.436 102.369 176.536L101.064 166.622C81.4401 169.205 61.5462 164.567 45.0887 153.57L39.533 161.885ZM102.369 176.536C124.398 173.636 144.622 162.826 159.272 146.121L151.754 139.527C138.703 154.409 120.688 164.038 101.064 166.622L102.369 176.536ZM159.272 146.121C173.922 129.416 182 107.954 182 85.7347L172 85.7347C172 105.528 164.804 124.646 151.754 139.527L159.272 146.121ZM9.68027 113.995C4.68207 114.129 4.68207 114.129 4.68207 114.129C4.68208 114.129 4.68208 114.129 4.68209 114.13C4.68211 114.13 4.68213 114.131 4.68217 114.133C4.68224 114.135 4.68235 114.139 4.68249 114.145C4.68277 114.155 4.68321 114.172 4.68378 114.193C4.68492 114.236 4.68661 114.301 4.68883 114.385C4.69327 114.555 4.6998 114.807 4.70811 115.133C4.72473 115.786 4.7485 116.739 4.77704 117.935C4.83411 120.326 4.91021 123.691 4.98632 127.581C5.13867 135.367 5.29045 145.229 5.29045 153.599L15.2905 153.599C15.2905 145.131 15.1372 135.192 14.9844 127.385C14.908 123.478 14.8315 120.099 14.7742 117.696C14.7455 116.494 14.7216 115.537 14.7049 114.879C14.6965 114.55 14.6899 114.296 14.6854 114.124C14.6832 114.038 14.6814 113.972 14.6803 113.928C14.6797 113.906 14.6792 113.89 14.6789 113.878C14.6788 113.873 14.6787 113.868 14.6786 113.865C14.6786 113.864 14.6785 113.863 14.6785 113.862C14.6785 113.862 14.6785 113.861 14.6785 113.861C14.6785 113.861 14.6785 113.861 9.68027 113.995ZM9.68027 118.995L41.5374 118.995L41.5374 108.995L9.68027 108.995L9.68027 118.995Z" fill="black"/>
</svg>
