<svg xmlns="http://www.w3.org/2000/svg" xmlns:xlink="http://www.w3.org/1999/xlink" width="20" height="20" viewBox="0, 0, 400,400">
    <g>
        <path fill="black" d="M303.316 3.904 C 294.994 5.148,288.647 9.076,277.654 19.785 L 267.578 29.599 318.748 80.815 C 346.891 108.984,370.107 132.031,370.338 132.031 C 371.421 132.031,390.857 110.421,392.276 107.638 C 398.101 96.220,397.458 81.716,390.657 71.157 C 387.094 65.625,330.756 9.891,326.635 7.822 C 319.563 4.271,310.755 2.791,303.316 3.904 M238.696 55.217 L 226.453 66.684 279.778 120.012 L 333.102 173.341 337.450 169.491 C 339.841 167.374,345.488 162.141,350.000 157.864 L 358.203 150.086 305.080 96.918 C 275.863 67.676,251.728 43.750,251.448 43.750 C 251.168 43.750,245.429 48.910,238.696 55.217 M125.304 168.673 C 54.477 238.834,38.402 255.134,37.638 257.567 C 24.577 299.123,1.430 381.299,1.793 384.821 C 2.583 392.479,7.811 397.555,15.548 398.178 C 19.785 398.519,137.814 364.841,144.309 361.439 C 146.870 360.096,317.969 190.726,317.969 189.532 C 317.969 189.048,312.913 183.605,306.733 177.436 L 295.497 166.220 210.822 250.615 L 126.146 335.010 92.611 344.889 L 59.076 354.769 52.157 347.850 L 45.239 340.931 55.521 305.817 L 65.803 270.703 148.917 187.499 C 194.630 141.736,232.031 103.938,232.031 103.503 C 232.031 103.068,227.532 98.223,222.033 92.736 L 212.034 82.759 125.304 168.673 M163.742 204.726 C 117.056 251.257,79.133 289.564,79.468 289.854 C 79.804 290.143,85.409 291.539,91.926 292.955 L 103.773 295.529 104.195 297.960 C 104.427 299.297,105.209 304.346,105.932 309.180 C 106.656 314.014,107.464 317.969,107.727 317.969 C 107.990 317.969,146.263 279.910,192.778 233.394 L 277.350 148.819 262.987 134.472 L 248.624 120.124 163.742 204.726 " stroke="none" fill-rule="evenodd">
        </path>
    </g>
</svg>