<svg width="39" height="40" viewBox="0 0 39 40" fill="none" xmlns="http://www.w3.org/2000/svg">
<path d="M14.1271 22.1278L3.89421 32.3607C3.81844 32.4365 3.75632 32.5247 3.71056 32.6216L2.09273 36.0472C1.71936 36.8378 2.54241 37.6608 3.33299 37.2874L6.75853 35.6696C6.85542 35.6238 6.94368 35.5617 7.01944 35.486L17.2524 25.253M21.5036 7.47994C20.752 6.44482 19.8165 4.5678 21.3756 3.00872C23.6604 0.723882 25.9715 3.03498 25.9715 3.03498C25.9715 3.03498 25.9715 3.03498 25.9715 3.03498L35.8462 12.9097C35.8462 12.9097 35.8462 12.9097 35.8462 12.9097C35.8462 12.9097 38.3149 15.3784 36.0301 17.6632C34.484 19.2092 32.5773 18.2542 31.5058 17.4749C31.042 17.1376 30.3617 17.1857 30.0186 17.6454C28.8996 19.1447 26.5895 22.2484 25.0491 24.3755C24.7899 24.7336 24.8282 25.2224 25.0995 25.5715C27.2099 28.2874 26.4389 30.7696 25.782 32.0196C25.5285 32.502 24.9057 32.5386 24.5202 32.1532L7.30389 14.9369C6.90058 14.5336 6.96101 13.8781 7.47786 13.6369C8.80702 13.0167 11.3497 12.3098 13.8247 14.2769C14.2058 14.5798 14.7539 14.6085 15.1236 14.2917C17.6184 12.1536 20.1512 9.98438 21.3875 8.92567C21.8048 8.56836 21.8264 7.92446 21.5036 7.47994Z" stroke="black" stroke-width="2.24" fill="none"/>
</svg>
