<svg width="39" height="40" viewBox="0 0 39 40" fill="black" xmlns="http://www.w3.org/2000/svg">
<path d="M21.3756 3.38885C19.8165 4.94793 20.752 6.82494 21.5036 7.86007C21.8264 8.30458 21.8048 8.94849 21.3875 9.3058C20.1512 10.3645 17.6184 12.5337 15.1236 14.6718C14.754 14.9886 14.2058 14.9599 13.8247 14.657C11.3498 12.6899 8.80702 13.3968 7.47786 14.017C6.96101 14.2582 6.90058 14.9137 7.30389 15.317L24.5202 32.5334C24.9057 32.9188 25.5285 32.8822 25.782 32.3997C26.4389 31.1497 27.2099 28.6675 25.0995 25.9516C24.8282 25.6025 24.7899 25.1137 25.0491 24.7556C26.5895 22.6285 28.8996 19.5248 30.0186 18.0255C30.3617 17.5658 31.042 17.5177 31.5058 17.855C32.5773 18.6343 34.484 19.5893 36.0301 18.0433C38.3149 15.7585 35.8462 13.2898 35.8462 13.2898L25.9715 3.41511C25.9715 3.41511 25.9715 3.41511 25.9715 3.41511C25.9715 3.4151 23.6604 1.10401 21.3756 3.38885Z"/>
<path d="M14.7859 23.1667C14.4221 22.8029 13.8322 22.8029 13.4684 23.1667L3.89421 32.7408C3.81844 32.8166 3.75632 32.9049 3.71056 33.0018L2.09273 36.4273C1.71936 37.2179 2.54241 38.0409 3.33299 37.6676L6.75853 36.0497C6.85542 36.004 6.94368 35.9418 7.01944 35.8661L16.5936 26.2919C16.9574 25.9281 16.9574 25.3382 16.5936 24.9744L14.7859 23.1667Z"/>
</svg>
