<?xml version="1.0" encoding="UTF-8"?>
<svg width="80pt" height="80pt" version="1.0" viewBox="0 0 80 80" xmlns="http://www.w3.org/2000/svg">
 <g transform="matrix(.016815 0 0 -.016815 -3.8544 83.071)" fill="black">
  <path d="m3824 4371c-77-35-117-117-95-193 10-33 48-77 179-212l166-171-319-6c-349-7-412-15-527-67-182-83-260-164-612-635-98-131-182-237-187-235-9 3-50 57-170 220-41 57-109 148-149 203-173 234-378 394-605 472-134 45-214 53-554 53-287 0-320-2-357-19-55-25-87-71-92-136-6-68 18-118 71-153l40-27 361-6c387-6 390-6 506-63 185-92 237-146 537-553 169-230 203-277 203-283s-34-53-203-283c-300-407-352-461-537-553-116-57-119-57-506-63l-361-6-40-27c-53-35-77-85-71-153 5-65 37-111 92-136 37-17 70-19 357-19 340 0 420 8 554 53 227 78 432 238 605 472 40 55 108 146 149 203 120 163 161 217 170 220 5 2 89-104 187-235 352-471 430-552 612-635 115-52 178-60 527-67l319-6-166-171c-131-135-169-179-179-212-35-117 86-237 204-203 36 11 86 57 355 329 172 174 320 331 329 347 21 38 21 111 0 150-8 17-159 172-334 347-269 268-324 318-360 329-118 34-238-86-204-203 11-35 44-75 179-211l166-167-289 6c-160 3-312 10-338 15-110 21-208 93-312 230-27 35-70 92-96 125-54 69-246 326-329 439-30 41-55 79-55 85s25 44 55 85c83 113 275 370 329 439 26 33 69 90 96 125 104 137 202 209 312 230 26 5 178 12 338 15l289 6-166-167c-135-136-168-176-179-210-34-118 86-238 204-204 36 11 91 61 360 329 175 175 326 331 334 347 20 37 21 111 2 147-8 14-153 168-323 342-358 365-370 373-472 327z"/>
 </g>
</svg>
