<?xml version="1.0" encoding="UTF-8"?>
<svg width="80pt" height="80pt" version="1.0" viewBox="0 0 80 80" xmlns="http://www.w3.org/2000/svg">
 <g transform="matrix(.016158 0 0 -.016158 -1.6822 81.74)" fill="black">
  <path d="m4190 4691c-215-7-232-13-309-97-88-96-91-206-9-299 54-62 117-80 245-72l93 6v-105c0-127 12-180 52-228 54-66 134-93 221-75 43 10 61 22 113 73 83 83 87 103 82 406-3 252-6 267-62 328-59 66-114 74-426 63z"/>
  <path d="m2856 4678c-60-16-130-91-146-156-26-110 38-226 143-257 62-18 443-21 512-4 110 28 181 144 156 255-17 74-75 138-144 159-60 18-456 20-521 3z"/>
  <path d="m605 4671c-69-17-116-55-151-121-17-32-19-57-16-265 3-281 9-313 71-375 38-38 59-50 113-65 88-23 148-10 213 47 62 54 80 117 72 245l-6 93h105c127 0 180 12 228 52 66 54 93 134 75 220-9 40-22 62-58 98-71 71-116 80-392 79-123-1-237-4-254-8z"/>
  <path d="m1786 4668c-60-16-130-91-146-156-26-110 38-226 143-257 62-18 443-21 512-4 110 28 181 144 156 255-17 74-75 138-144 159-60 18-456 20-521 3z"/>
  <path d="m598 3518c-59-16-125-80-143-141-19-64-21-443-3-515 17-67 87-135 156-152 110-26 226 38 257 143 18 62 21 443 4 512-17 66-78 131-142 150-57 17-76 17-129 3z"/>
  <path d="m4378 3488c-59-16-125-80-143-141-18-62-21-443-4-512 7-27 28-63 51-90 80-90 208-96 302-14 68 60 76 97 76 351 0 253-6 285-70 348-62 63-127 81-212 58z"/>
  <path d="m608 2448c-59-16-125-80-143-141-19-64-21-443-3-515 17-67 87-135 156-152 110-26 226 38 257 143 18 62 21 443 4 512-17 66-78 131-142 150-57 17-76 17-129 3z"/>
  <path d="m4388 2418c-59-16-125-80-143-141-18-62-21-443-4-512 7-27 28-63 51-90 80-90 208-96 302-14 68 60 76 97 76 351 0 253-6 285-70 348-62 63-127 81-212 58z"/>
  <path d="m621 1308c-31-7-57-23-91-57-67-67-73-99-68-396 3-211 5-244 22-275 26-49 55-79 101-103 38-21 51-22 270-19 282 3 313 9 376 72 87 87 90 211 7 305-54 62-117 80-245 72l-93-6v105c0 58-5 125-11 148-28 112-148 182-268 154z"/>
  <path d="m4388 1308c-21-5-58-28-83-50-60-53-79-115-73-244l4-94h-104c-125 0-178-12-226-52-68-56-96-146-76-244 10-47 20-65 59-104 67-67 100-73 391-68 218 3 238 5 275 25 46 24 75 54 101 103 17 32 19 57 16 280-3 297-9 328-71 390-63 63-128 81-213 58z"/>
  <path d="m2838 898c-21-5-58-28-83-50-90-80-96-208-14-302 60-68 97-76 351-76 253 0 285 6 349 70 86 86 89 202 7 294-60 69-96 76-357 75-119-1-233-6-253-11z"/>
  <path d="m1768 888c-21-5-58-28-83-50-90-80-96-208-14-302 60-68 97-76 351-76 253 0 285 6 349 70 86 86 89 202 7 294-60 69-96 76-357 75-119-1-233-6-253-11z"/>
 </g>
</svg>
