<?xml version="1.0" encoding="UTF-8"?>
<svg width="80pt" height="80pt" version="1.0" viewBox="0 0 80 80" xmlns="http://www.w3.org/2000/svg">
 <g transform="matrix(.01556 0 0 -.01556 .51364 86.961)" fill="black">
  <path d="m2507 4846c-97-36-116-83-117-288 0-86-4-167-9-180-8-21-19-25-112-36-136-16-328-61-484-113-69-23-127-40-129-38s-43 87-90 189c-92 198-117 231-186 250-110 29-230-81-204-187 4-15 45-109 91-207 45-99 83-182 83-186s-41-31-92-60c-114-64-270-168-383-255-97-74-96-73-159-3-21 23-81 82-132 130-107 100-147 118-221 98-58-17-109-74-118-132-12-76 12-113 161-254l134-126-90-87c-140-135-328-351-346-398-49-127 83-257 211-209 34 13 64 41 136 124 374 430 797 759 1221 949 565 252 1139 269 1698 51 441-173 857-488 1264-958 65-74 132-143 149-153 42-24 127-19 165 10 69 51 91 135 55 210-19 40-206 257-329 383l-84 85 125 125c137 136 162 178 152 250-13 102-126 167-224 129-15-6-89-71-165-146l-137-136-33 26c-151 122-295 221-445 307-51 29-93 55-93 57 0 3 36 81 80 174 86 182 95 220 64 285-46 97-177 120-258 46-16-16-64-100-112-200l-83-172-65 24c-139 53-391 109-565 128l-114 12 7 164c7 174 1 220-35 266-41 53-119 75-182 52z"/>
  <path d="m2400 3610c-357-28-765-186-1115-433-202-143-447-365-632-574-135-151-135-195 0-346 633-715 1349-1063 2075-1008 527 40 1031 291 1492 745 134 132 284 299 319 356 28 46 28 114 0 160-66 108-372 422-556 569-503 403-1014 575-1583 531zm579-310c417-102 802-348 1175-751 58-63 106-116 106-119s-48-56-106-119c-373-403-758-649-1175-751-146-35-177-38-93-6 271 100 475 317 570 606 27 80 28 95 29 265 0 161-2 188-23 253-43 137-39 132-68 74-55-111-174-182-304-182-100 0-171 29-241 99s-99 141-99 241 29 171 99 241c38 38 74 62 111 76l54 20-44 23c-25 13-67 31-95 41-76 27-33 22 104-11zm-846-40c-227-116-383-302-469-560-27-81-28-94-28-270s1-189 28-270c85-256 242-444 471-561 121-63 91-61-115 7-343 113-678 331-997 652-90 89-163 167-163 172s73 83 163 172c341 342 675 555 1057 672 63 19 123 35 133 36 10 0-26-23-80-50z"/>
 </g>
</svg>
